<svg width="100" height="100" viewBox="0 0 100 100" fill="none" xmlns="http://www.w3.org/2000/svg">
<g filter="url(#filter0_d)">
<path d="M79.1667 12.5H20.8333C16.25 12.5 12.5 16.25 12.5 20.8333V79.1667C12.5 83.75 16.25 87.5 20.8333 87.5H79.1667C83.75 87.5 87.5 83.75 87.5 79.1667V20.8333C87.5 16.25 83.75 12.5 79.1667 12.5ZM22.9167 31.25H31.25V22.9167H37.5V31.25H45.8333V37.5H37.5V45.8333H31.25V37.5H22.9167V31.25ZM79.1667 79.1667H20.8333L79.1667 20.8333V79.1667ZM70.8333 70.8333V64.5833H50V70.8333H70.8333Z" fill="white"/>
</g>
<defs>
<filter id="filter0_d" x="-4" y="0" width="108" height="108" filterUnits="userSpaceOnUse" color-interpolation-filters="sRGB">
<feFlood flood-opacity="0" result="BackgroundImageFix"/>
<feColorMatrix in="SourceAlpha" type="matrix" values="0 0 0 0 0 0 0 0 0 0 0 0 0 0 0 0 0 0 127 0" result="hardAlpha"/>
<feOffset dy="4"/>
<feGaussianBlur stdDeviation="2"/>
<feComposite in2="hardAlpha" operator="out"/>
<feColorMatrix type="matrix" values="0 0 0 0 0 0 0 0 0 0 0 0 0 0 0 0 0 0 0.25 0"/>
<feBlend mode="normal" in2="BackgroundImageFix" result="effect1_dropShadow"/>
<feBlend mode="normal" in="SourceGraphic" in2="effect1_dropShadow" result="shape"/>
</filter>
</defs>
</svg>
