<svg width="100" height="100" viewBox="0 0 100 100" fill="none" xmlns="http://www.w3.org/2000/svg">
<g filter="url(#filter0_d)">
<path d="M82.625 31.25L73.1667 21.7917C73.4583 20.0417 73.9167 18.4167 74.5 17C74.8333 16.25 75 15.4584 75 14.5834C75 11.125 72.2083 8.33337 68.75 8.33337C61.9167 8.33337 55.875 11.625 52.0833 16.6667H31.25C18.5833 16.6667 8.33334 26.9167 8.33334 39.5834C8.33334 52.25 18.75 87.5 18.75 87.5H41.6667V79.1667H50V87.5H72.9167L79.9167 64.2084L91.6667 60.2917V31.25H82.625ZM54.1667 37.5H33.3333V29.1667H54.1667V37.5ZM66.6667 45.8334C64.375 45.8334 62.5 43.9584 62.5 41.6667C62.5 39.375 64.375 37.5 66.6667 37.5C68.9583 37.5 70.8333 39.375 70.8333 41.6667C70.8333 43.9584 68.9583 45.8334 66.6667 45.8334Z" fill="white"/>
</g>
<defs>
<filter id="filter0_d" x="-4" y="0" width="108" height="108" filterUnits="userSpaceOnUse" color-interpolation-filters="sRGB">
<feFlood flood-opacity="0" result="BackgroundImageFix"/>
<feColorMatrix in="SourceAlpha" type="matrix" values="0 0 0 0 0 0 0 0 0 0 0 0 0 0 0 0 0 0 127 0" result="hardAlpha"/>
<feOffset dy="4"/>
<feGaussianBlur stdDeviation="2"/>
<feComposite in2="hardAlpha" operator="out"/>
<feColorMatrix type="matrix" values="0 0 0 0 0 0 0 0 0 0 0 0 0 0 0 0 0 0 0.25 0"/>
<feBlend mode="normal" in2="BackgroundImageFix" result="effect1_dropShadow"/>
<feBlend mode="normal" in="SourceGraphic" in2="effect1_dropShadow" result="shape"/>
</filter>
</defs>
</svg>
