<svg width="451" height="418" viewBox="0 0 451 418" fill="none" xmlns="http://www.w3.org/2000/svg">
<g filter="url(#filter0_d)">
<path d="M9.2732 87V0.734206H26.0537V72.2285H60.9145V87H9.2732ZM74.5911 87V0.734206H126.823V14.9149H91.0171V36.0677H124.696V50.2484H91.0171V72.8193H127.769V87H74.5911ZM162.004 87V15.5057H137.069V0.734206H203.718V15.5057H178.784V87H162.004ZM234.109 87L263.534 0.734206H290.95L321.202 87H303.949L296.031 64.0746H258.452L250.889 87H234.109ZM263.179 49.8939H291.186L279.251 14.7967H274.878L263.179 49.8939ZM334.016 87V0.734206H361.55L397.829 73.0557H399.366V0.734206H415.201V87H387.548L351.269 14.6785H349.615V87H334.016ZM13.7705 189V129.914H49.5459V139.627H25.0211V154.115H48.089V163.828H25.0211V179.287H50.1934V189H13.7705ZM61.9866 189V129.914H80.8456L105.694 179.449H106.746V129.914H117.592V189H98.6524L73.8039 139.465H72.6707V189H61.9866ZM159.696 190.538C154.624 190.538 150.145 189.701 146.26 188.029C142.429 186.302 139.192 184.009 136.548 181.149C133.957 178.289 131.988 175.024 130.639 171.355C129.344 167.686 128.696 163.882 128.696 159.943V158.162C128.696 154.439 129.344 150.796 130.639 147.235C131.934 143.674 133.823 140.463 136.305 137.603C138.841 134.743 141.943 132.477 145.613 130.804C149.282 129.077 153.545 128.214 158.401 128.214C163.527 128.214 168.087 129.185 172.08 131.128C176.127 133.07 179.365 135.768 181.793 139.222C184.221 142.621 185.651 146.56 186.083 151.039H174.508C174.131 148.503 173.186 146.345 171.675 144.564C170.165 142.729 168.249 141.326 165.929 140.355C163.662 139.384 161.153 138.898 158.401 138.898C154.678 138.898 151.467 139.762 148.769 141.488C146.071 143.161 143.994 145.535 142.537 148.611C141.08 151.633 140.352 155.14 140.352 159.133C140.352 165.716 142.078 170.869 145.532 174.593C149.039 178.262 153.761 180.097 159.696 180.097C162.826 180.097 165.659 179.557 168.195 178.478C170.785 177.399 172.89 175.969 174.508 174.188V167.551H157.835V158.971H190.049V167.551H185.111V178.397C182.575 182.282 179.122 185.277 174.751 187.381C170.38 189.486 165.362 190.538 159.696 190.538ZM199.683 189V129.914H211.177V189H199.683ZM225.922 189V129.914H244.781L269.629 179.449H270.681V129.914H281.527V189H262.587L237.739 139.465H236.606V189H225.922ZM296.112 189V129.914H331.887V139.627H307.362V154.115H330.43V163.828H307.362V179.287H332.535V189H296.112ZM344.328 189V129.914H380.103V139.627H355.579V154.115H378.646V163.828H355.579V179.287H380.751V189H344.328ZM392.544 189V129.509H414.479C421.548 129.509 427.186 131.101 431.395 134.285C435.604 137.468 437.709 142.298 437.709 148.773V150.149C437.709 154.574 436.683 158.216 434.633 161.076C432.636 163.936 429.857 166.04 426.296 167.389L442.079 189H428.643L414.722 169.251H414.479H404.038V189H392.544ZM415.693 139.303H404.038V159.943H415.693C418.823 159.943 421.332 158.998 423.22 157.11C425.109 155.221 426.053 152.739 426.053 149.663C426.053 146.587 425.109 144.105 423.22 142.217C421.332 140.274 418.823 139.303 415.693 139.303ZM24.4117 283V237.949H8.69967V228.641H50.6978V237.949H34.9857V283H24.4117ZM49.1957 283L67.7374 228.641H85.0132L104.076 283H93.2044L88.2152 268.554H64.5354L59.7697 283H49.1957ZM67.514 259.618H85.1622L77.6412 237.502H74.886L67.514 259.618ZM112.151 283V228.641H122.725V254.033L143.426 228.641H155.564L136.203 252.321L160.255 283H147.373L127.491 257.608H122.725V283H112.151ZM166.327 283V228.641H199.24V237.577H176.678V250.906H197.9V259.841H176.678V274.064H199.836V283H166.327ZM239.863 283V262.224H237.182L220.8 228.641H231.672L243.809 254.182H246.639L257.734 228.641H268.01L252.894 262.224H250.213V283H239.863ZM299.13 284.415C294.215 284.415 289.946 283.546 286.322 281.809C282.698 280.071 279.694 277.812 277.311 275.032C274.978 272.203 273.241 269.174 272.099 265.948C270.957 262.671 270.386 259.519 270.386 256.491V254.852C270.386 251.526 270.982 248.225 272.173 244.949C273.365 241.672 275.152 238.693 277.535 236.013C279.967 233.282 282.971 231.123 286.545 229.534C290.119 227.896 294.314 227.077 299.13 227.077C303.846 227.077 307.991 227.896 311.565 229.534C315.189 231.123 318.193 233.282 320.576 236.013C322.958 238.693 324.746 241.672 325.937 244.949C327.178 248.225 327.799 251.526 327.799 254.852V256.491C327.799 259.519 327.203 262.671 326.011 265.948C324.87 269.174 323.107 272.203 320.724 275.032C318.391 277.812 315.413 280.071 311.789 281.809C308.214 283.546 303.995 284.415 299.13 284.415ZM299.13 274.585C302.803 274.585 305.98 273.742 308.661 272.054C311.342 270.316 313.402 268.008 314.842 265.128C316.331 262.249 317.076 259.122 317.076 255.746C317.076 252.172 316.331 248.97 314.842 246.14C313.402 243.261 311.342 241.002 308.661 239.364C305.98 237.725 302.803 236.906 299.13 236.906C295.406 236.906 292.204 237.725 289.524 239.364C286.843 241.002 284.758 243.261 283.269 246.14C281.829 248.97 281.109 252.172 281.109 255.746C281.109 259.122 281.829 262.249 283.269 265.128C284.708 268.008 286.769 270.316 289.449 272.054C292.18 273.742 295.406 274.585 299.13 274.585ZM360.432 284.415C355.318 284.415 351.024 283.447 347.549 281.511C344.074 279.575 341.443 276.869 339.656 273.394C337.869 269.869 336.975 265.749 336.975 261.033V228.641H347.549V261.629C347.549 265.55 348.641 268.703 350.826 271.086C353.06 273.419 356.262 274.585 360.432 274.585C364.502 274.585 367.63 273.419 369.814 271.086C372.048 268.752 373.165 265.6 373.165 261.629V228.641H383.739V261.033C383.739 265.749 382.846 269.869 381.058 273.394C379.271 276.869 376.64 279.575 373.165 281.511C369.74 283.447 365.495 284.415 360.432 284.415ZM396.121 283V228.268H416.301C422.804 228.268 427.992 229.733 431.864 232.662C435.736 235.591 437.672 240.034 437.672 245.991V247.257C437.672 251.328 436.729 254.679 434.842 257.31C433.005 259.941 430.449 261.877 427.172 263.118L441.693 283H429.332L416.524 264.831H416.301H406.695V283H396.121ZM417.418 237.279H406.695V256.267H417.418C420.297 256.267 422.605 255.398 424.343 253.661C426.08 251.923 426.949 249.64 426.949 246.81C426.949 243.98 426.08 241.697 424.343 239.959C422.605 238.172 420.297 237.279 417.418 237.279ZM17.0881 399V331.18H40.3405C48.8295 331.18 55.3808 333.241 59.9943 337.363C64.6694 341.423 67.007 346.959 67.007 353.971V355.448C67.007 362.46 64.6694 368.028 59.9943 372.149C55.3808 376.27 48.8295 378.331 40.3405 378.331H30.1906V399H17.0881ZM41.4478 342.53H30.1906V366.982H41.4478C45.3847 366.982 48.3989 365.844 50.4904 363.568C52.6434 361.292 53.7199 358.339 53.7199 354.71C53.7199 351.08 52.6434 348.158 50.4904 345.944C48.3989 343.668 45.3847 342.53 41.4478 342.53ZM77.8215 399V331.642H90.924V359.508H122.02V331.642H135.122V399H122.02V371.042H90.924V399H77.8215ZM183.36 400.753C177.27 400.753 171.98 399.677 167.489 397.524C162.999 395.371 159.277 392.572 156.324 389.127C153.433 385.621 151.28 381.868 149.865 377.87C148.451 373.81 147.743 369.904 147.743 366.151V364.121C147.743 360 148.481 355.909 149.958 351.849C151.434 347.789 153.649 344.098 156.601 340.777C159.615 337.393 163.337 334.717 167.766 332.749C172.195 330.719 177.393 329.704 183.36 329.704C189.204 329.704 194.34 330.719 198.769 332.749C203.26 334.717 206.981 337.393 209.934 340.777C212.887 344.098 215.101 347.789 216.578 351.849C218.116 355.909 218.884 360 218.884 364.121V366.151C218.884 369.904 218.146 373.81 216.67 377.87C215.255 381.868 213.071 385.621 210.119 389.127C207.228 392.572 203.537 395.371 199.046 397.524C194.617 399.677 189.388 400.753 183.36 400.753ZM183.36 388.573C187.912 388.573 191.849 387.528 195.171 385.436C198.492 383.283 201.045 380.423 202.829 376.855C204.675 373.287 205.597 369.412 205.597 365.229C205.597 360.8 204.675 356.832 202.829 353.326C201.045 349.758 198.492 346.959 195.171 344.929C191.849 342.899 187.912 341.884 183.36 341.884C178.746 341.884 174.779 342.899 171.457 344.929C168.135 346.959 165.552 349.758 163.706 353.326C161.922 356.832 161.03 360.8 161.03 365.229C161.03 369.412 161.922 373.287 163.706 376.855C165.49 380.423 168.043 383.283 171.365 385.436C174.748 387.528 178.746 388.573 183.36 388.573ZM242.852 399V343.176H223.383V331.642H275.424V343.176H255.955V399H242.852ZM315.55 400.753C309.46 400.753 304.17 399.677 299.679 397.524C295.188 395.371 291.467 392.572 288.514 389.127C285.623 385.621 283.47 381.868 282.055 377.87C280.64 373.81 279.933 369.904 279.933 366.151V364.121C279.933 360 280.671 355.909 282.147 351.849C283.624 347.789 285.838 344.098 288.791 340.777C291.805 337.393 295.527 334.717 299.956 332.749C304.385 330.719 309.583 329.704 315.55 329.704C321.394 329.704 326.53 330.719 330.959 332.749C335.45 334.717 339.171 337.393 342.124 340.777C345.077 344.098 347.291 347.789 348.767 351.849C350.305 355.909 351.074 360 351.074 364.121V366.151C351.074 369.904 350.336 373.81 348.86 377.87C347.445 381.868 345.261 385.621 342.308 389.127C339.417 392.572 335.726 395.371 331.236 397.524C326.807 399.677 321.578 400.753 315.55 400.753ZM315.55 388.573C320.102 388.573 324.039 387.528 327.36 385.436C330.682 383.283 333.235 380.423 335.019 376.855C336.864 373.287 337.787 369.412 337.787 365.229C337.787 360.8 336.864 356.832 335.019 353.326C333.235 349.758 330.682 346.959 327.36 344.929C324.039 342.899 320.102 341.884 315.55 341.884C310.936 341.884 306.968 342.899 303.647 344.929C300.325 346.959 297.741 349.758 295.896 353.326C294.112 356.832 293.22 360.8 293.22 365.229C293.22 369.412 294.112 373.287 295.896 376.855C297.68 380.423 300.233 383.283 303.554 385.436C306.938 387.528 310.936 388.573 315.55 388.573ZM386.442 400.753C380.475 400.753 375.431 399.8 371.31 397.893C367.188 395.986 364.051 393.371 361.898 390.05C359.807 386.728 358.761 382.914 358.761 378.608H371.587C371.587 380.453 372.079 382.207 373.063 383.867C374.047 385.528 375.616 386.882 377.769 387.927C379.983 388.973 382.875 389.496 386.442 389.496C391.24 389.496 394.839 388.512 397.238 386.543C399.637 384.575 400.837 382.176 400.837 379.346C400.837 377.009 399.822 375.102 397.792 373.625C395.762 372.149 392.625 371.226 388.38 370.857L382.475 370.396C376.016 369.842 370.848 367.843 366.973 364.398C363.159 360.892 361.252 356.278 361.252 350.557C361.252 346.313 362.236 342.622 364.205 339.485C366.235 336.348 369.095 333.949 372.786 332.288C376.477 330.565 380.783 329.704 385.704 329.704C390.748 329.704 395.116 330.596 398.807 332.38C402.559 334.164 405.45 336.686 407.48 339.946C409.51 343.145 410.525 346.928 410.525 351.296H397.7C397.7 348.589 396.685 346.19 394.655 344.098C392.686 342.007 389.703 340.961 385.704 340.961C381.767 340.961 378.845 341.915 376.938 343.822C375.031 345.729 374.078 347.974 374.078 350.557C374.078 352.649 374.816 354.494 376.293 356.094C377.83 357.632 380.291 358.524 383.674 358.77L389.58 359.323C394.378 359.754 398.561 360.8 402.129 362.46C405.758 364.06 408.588 366.274 410.618 369.104C412.647 371.934 413.662 375.348 413.662 379.346C413.662 383.591 412.524 387.343 410.248 390.603C408.034 393.802 404.897 396.293 400.837 398.077C396.777 399.861 391.979 400.753 386.442 400.753ZM421.696 399V384.237H436.09V399H421.696Z" fill="white"/>
</g>
<defs>
<filter id="filter0_d" x="0.514898" y="0.734207" width="449.749" height="416.388" filterUnits="userSpaceOnUse" color-interpolation-filters="sRGB">
<feFlood flood-opacity="0" result="BackgroundImageFix"/>
<feColorMatrix in="SourceAlpha" type="matrix" values="0 0 0 0 0 0 0 0 0 0 0 0 0 0 0 0 0 0 127 0" result="hardAlpha"/>
<feOffset dy="8.18475"/>
<feGaussianBlur stdDeviation="4.09237"/>
<feComposite in2="hardAlpha" operator="out"/>
<feColorMatrix type="matrix" values="0 0 0 0 0 0 0 0 0 0 0 0 0 0 0 0 0 0 0.35 0"/>
<feBlend mode="normal" in2="BackgroundImageFix" result="effect1_dropShadow"/>
<feBlend mode="normal" in="SourceGraphic" in2="effect1_dropShadow" result="shape"/>
</filter>
</defs>
</svg>
