<svg width="1124" height="236" viewBox="0 0 1124 236" fill="none" xmlns="http://www.w3.org/2000/svg">
<g filter="url(#filter0_d)">
<path d="M11.4741 92V3.41779H28.7052V76.8318H64.5021V92H11.4741ZM78.546 92V3.41779H132.181V17.9792H95.413V39.7001H129.996V54.2616H95.413V77.4385H133.151V92H78.546ZM168.306 92V18.586H142.702V3.41779H211.141V18.586H185.537V92H168.306ZM242.347 92L272.562 3.41779H300.714L331.779 92H314.062L305.932 68.459H267.344L259.578 92H242.347ZM272.198 53.8975H300.957L288.701 17.8579H284.211L272.198 53.8975ZM344.937 92V3.41779H373.211L410.464 77.6812H412.041V3.41779H428.302V92H399.907L362.654 17.7366H360.955V92H344.937ZM476.355 92V3.41779H529.99V17.9792H493.222V39.7001H527.806V54.2616H493.222V77.4385H530.961V92H476.355ZM548.641 92V3.41779H576.915L614.168 77.6812H615.745V3.41779H632.006V92H603.611L566.358 17.7366H564.659V92H548.641ZM695.128 94.3056C687.524 94.3056 680.809 93.0517 674.985 90.5439C669.241 87.9552 664.387 84.517 660.423 80.2295C656.54 75.9419 653.587 71.0477 651.565 65.5467C649.623 60.0457 648.653 54.3424 648.653 48.437V45.7674C648.653 40.1855 649.623 34.7249 651.565 29.3857C653.506 24.0465 656.338 19.2332 660.059 14.9456C663.861 10.6581 668.513 7.2604 674.014 4.75259C679.515 2.16388 685.906 0.869532 693.186 0.869532C700.872 0.869532 707.707 2.32568 713.694 5.23797C719.761 8.15026 724.615 12.1951 728.255 17.3725C731.896 22.469 734.039 28.3745 734.687 35.089H717.334C716.768 31.2868 715.352 28.0509 713.087 25.3813C710.822 22.6308 707.95 20.5275 704.472 19.0714C701.074 17.6152 697.312 16.8871 693.186 16.8871C687.605 16.8871 682.791 18.1815 678.746 20.7702C674.701 23.278 671.587 26.8375 669.403 31.4486C667.219 35.9788 666.126 41.2371 666.126 47.2235C666.126 57.0929 668.715 64.8186 673.893 70.4005C679.151 75.9015 686.229 78.652 695.128 78.652C699.82 78.652 704.067 77.843 707.869 76.2251C711.752 74.6071 714.907 72.4634 717.334 69.7938V59.8434H692.337V46.9808H740.633V59.8434H733.23V76.1037C729.428 81.9283 724.251 86.4181 717.698 89.5731C711.146 92.7281 703.622 94.3056 695.128 94.3056ZM755.076 92V3.41779H772.308V92H755.076ZM794.413 92V3.41779H822.687L859.94 77.6812H861.517V3.41779H877.778V92H849.383L812.13 17.7366H810.431V92H794.413ZM899.643 92V3.41779H953.277V17.9792H916.51V39.7001H951.093V54.2616H916.51V77.4385H954.248V92H899.643ZM971.928 92V3.41779H1025.56V17.9792H988.795V39.7001H1023.38V54.2616H988.795V77.4385H1026.53V92H971.928ZM1044.21 92V2.81106H1077.1C1087.7 2.81106 1096.15 5.19752 1102.46 9.97044C1108.77 14.7434 1111.93 21.9836 1111.93 31.6913V33.7542C1111.93 40.3877 1110.39 45.8483 1107.31 50.1358C1104.32 54.4233 1100.15 57.5783 1094.82 59.6008L1118.48 92H1098.33L1077.46 62.3917H1077.1H1061.45V92H1044.21ZM1078.92 17.4939H1061.45V48.437H1078.92C1083.61 48.437 1087.37 47.0213 1090.2 44.1899C1093.04 41.3585 1094.45 37.6372 1094.45 33.0261C1094.45 28.415 1093.04 24.6937 1090.2 21.8623C1087.37 18.95 1083.61 17.4939 1078.92 17.4939ZM27.3252 223V160.292H5.45516V147.336H63.9134V160.292H42.0434V223H27.3252ZM61.8226 223L87.6312 147.336H111.678L138.212 223H123.079L116.135 202.892H83.1743L76.5407 223H61.8226ZM87.3203 190.454H111.885L101.417 159.67H97.5815L87.3203 190.454ZM149.452 223V147.336H164.17V182.68L192.984 147.336H209.879L182.93 180.296L216.409 223H198.478L170.803 187.656H164.17V223H149.452ZM224.86 223V147.336H270.673V159.774H239.268V178.327H268.808V190.765H239.268V210.562H271.503V223H224.86ZM327.216 223V194.082H323.485L300.682 147.336H315.815L332.71 182.888H336.649L352.092 147.336H366.396L345.355 194.082H341.624V223H327.216ZM409.712 224.969C402.871 224.969 396.928 223.76 391.884 221.342C386.84 218.923 382.659 215.779 379.342 211.91C376.095 207.971 373.676 203.756 372.087 199.264C370.498 194.704 369.703 190.316 369.703 186.101V183.821C369.703 179.191 370.532 174.596 372.191 170.035C373.849 165.475 376.337 161.329 379.653 157.597C383.039 153.797 387.22 150.791 392.195 148.58C397.17 146.3 403.009 145.159 409.712 145.159C416.276 145.159 422.046 146.3 427.021 148.58C432.065 150.791 436.246 153.797 439.563 157.597C442.879 161.329 445.367 165.475 447.025 170.035C448.753 174.596 449.617 179.191 449.617 183.821V186.101C449.617 190.316 448.787 194.704 447.129 199.264C445.54 203.756 443.087 207.971 439.77 211.91C436.522 215.779 432.376 218.923 427.332 221.342C422.357 223.76 416.483 224.969 409.712 224.969ZM409.712 211.288C414.825 211.288 419.247 210.113 422.979 207.764C426.71 205.345 429.578 202.132 431.582 198.124C433.655 194.116 434.691 189.763 434.691 185.064C434.691 180.089 433.655 175.632 431.582 171.694C429.578 167.686 426.71 164.542 422.979 162.262C419.247 159.981 414.825 158.841 409.712 158.841C404.529 158.841 400.072 159.981 396.341 162.262C392.609 164.542 389.707 167.686 387.634 171.694C385.63 175.632 384.628 180.089 384.628 185.064C384.628 189.763 385.63 194.116 387.634 198.124C389.638 202.132 392.506 205.345 396.237 207.764C400.038 210.113 404.529 211.288 409.712 211.288ZM495.039 224.969C487.922 224.969 481.945 223.622 477.108 220.927C472.271 218.232 468.609 214.466 466.121 209.629C463.634 204.723 462.39 198.988 462.39 192.423V147.336H477.108V193.253C477.108 198.712 478.628 203.099 481.669 206.416C484.778 209.664 489.235 211.288 495.039 211.288C500.705 211.288 505.059 209.664 508.099 206.416C511.209 203.168 512.763 198.781 512.763 193.253V147.336H527.481V192.423C527.481 198.988 526.238 204.723 523.75 209.629C521.263 214.466 517.6 218.232 512.763 220.927C507.995 223.622 502.087 224.969 495.039 224.969ZM544.716 223V146.818H572.805C581.857 146.818 589.077 148.856 594.467 152.933C599.857 157.01 602.552 163.194 602.552 171.486V173.248C602.552 178.915 601.239 183.579 598.613 187.241C596.057 190.903 592.498 193.598 587.937 195.326L608.149 223H590.943L573.115 197.71H572.805H559.434V223H544.716ZM574.359 159.359H559.434V185.79H574.359C578.367 185.79 581.58 184.581 583.999 182.162C586.417 179.744 587.626 176.565 587.626 172.626C587.626 168.688 586.417 165.509 583.999 163.091C581.58 160.603 578.367 159.359 574.359 159.359ZM641.684 223V146.818H667.804C677.34 146.818 684.699 149.133 689.881 153.762C695.133 158.323 697.759 164.542 697.759 172.419V174.078C697.759 181.955 695.133 188.208 689.881 192.838C684.699 197.468 677.34 199.783 667.804 199.783H656.403V223H641.684ZM669.048 159.567H656.403V187.034H669.048C673.47 187.034 676.856 185.755 679.205 183.199C681.624 180.642 682.833 177.325 682.833 173.248C682.833 169.171 681.624 165.889 679.205 163.402C676.856 160.845 673.47 159.567 669.048 159.567ZM709.907 223V147.336H724.625V178.638H759.555V147.336H774.273V223H759.555V191.594H724.625V223H709.907ZM828.459 224.969C821.618 224.969 815.675 223.76 810.631 221.342C805.587 218.923 801.406 215.779 798.089 211.91C794.842 207.971 792.423 203.756 790.834 199.264C789.245 194.704 788.45 190.316 788.45 186.101V183.821C788.45 179.191 789.279 174.596 790.938 170.035C792.596 165.475 795.084 161.329 798.4 157.597C801.786 153.797 805.967 150.791 810.942 148.58C815.917 146.3 821.756 145.159 828.459 145.159C835.023 145.159 840.793 146.3 845.768 148.58C850.812 150.791 854.993 153.797 858.31 157.597C861.626 161.329 864.114 165.475 865.772 170.035C867.5 174.596 868.364 179.191 868.364 183.821V186.101C868.364 190.316 867.534 194.704 865.876 199.264C864.287 203.756 861.834 207.971 858.517 211.91C855.269 215.779 851.123 218.923 846.079 221.342C841.104 223.76 835.23 224.969 828.459 224.969ZM828.459 211.288C833.572 211.288 837.994 210.113 841.726 207.764C845.457 205.345 848.325 202.132 850.329 198.124C852.402 194.116 853.438 189.763 853.438 185.064C853.438 180.089 852.402 175.632 850.329 171.694C848.325 167.686 845.457 164.542 841.726 162.262C837.994 159.981 833.572 158.841 828.459 158.841C823.276 158.841 818.819 159.981 815.088 162.262C811.357 164.542 808.454 167.686 806.381 171.694C804.378 175.632 803.376 180.089 803.376 185.064C803.376 189.763 804.378 194.116 806.381 198.124C808.385 202.132 811.253 205.345 814.984 207.764C818.785 210.113 823.276 211.288 828.459 211.288ZM895.287 223V160.292H873.417V147.336H931.875V160.292H910.005V223H895.287ZM976.948 224.969C970.108 224.969 964.165 223.76 959.121 221.342C954.076 218.923 949.896 215.779 946.579 211.91C943.332 207.971 940.913 203.756 939.324 199.264C937.734 194.704 936.94 190.316 936.94 186.101V183.821C936.94 179.191 937.769 174.596 939.427 170.035C941.086 165.475 943.573 161.329 946.89 157.597C950.276 153.797 954.457 150.791 959.432 148.58C964.407 146.3 970.246 145.159 976.948 145.159C983.513 145.159 989.283 146.3 994.258 148.58C999.302 150.791 1003.48 153.797 1006.8 157.597C1010.12 161.329 1012.6 165.475 1014.26 170.035C1015.99 174.596 1016.85 179.191 1016.85 183.821V186.101C1016.85 190.316 1016.02 194.704 1014.37 199.264C1012.78 203.756 1010.32 207.971 1007.01 211.91C1003.76 215.779 999.613 218.923 994.569 221.342C989.594 223.76 983.72 224.969 976.948 224.969ZM976.948 211.288C982.062 211.288 986.484 210.113 990.216 207.764C993.947 205.345 996.815 202.132 998.818 198.124C1000.89 194.116 1001.93 189.763 1001.93 185.064C1001.93 180.089 1000.89 175.632 998.818 171.694C996.815 167.686 993.947 164.542 990.216 162.262C986.484 159.981 982.062 158.841 976.948 158.841C971.766 158.841 967.309 159.981 963.578 162.262C959.846 164.542 956.944 167.686 954.871 171.694C952.867 175.632 951.865 180.089 951.865 185.064C951.865 189.763 952.867 194.116 954.871 198.124C956.875 202.132 959.743 205.345 963.474 207.764C967.275 210.113 971.766 211.288 976.948 211.288ZM1056.58 224.969C1049.88 224.969 1044.21 223.898 1039.58 221.756C1034.95 219.614 1031.43 216.677 1029.01 212.946C1026.66 209.215 1025.49 204.93 1025.49 200.094H1039.9C1039.9 202.166 1040.45 204.136 1041.55 206.002C1042.66 207.867 1044.42 209.387 1046.84 210.562C1049.33 211.737 1052.57 212.324 1056.58 212.324C1061.97 212.324 1066.01 211.219 1068.71 209.007C1071.4 206.796 1072.75 204.101 1072.75 200.923C1072.75 198.297 1071.61 196.155 1069.33 194.496C1067.05 192.838 1063.53 191.802 1058.76 191.387L1052.13 190.869C1044.87 190.247 1039.07 188.001 1034.71 184.132C1030.43 180.193 1028.29 175.01 1028.29 168.584C1028.29 163.816 1029.39 159.67 1031.6 156.146C1033.88 152.622 1037.1 149.927 1041.24 148.062C1045.39 146.127 1050.23 145.159 1055.75 145.159C1061.42 145.159 1066.33 146.161 1070.47 148.165C1074.69 150.169 1077.93 153.002 1080.21 156.664C1082.49 160.258 1083.64 164.507 1083.64 169.413H1069.23C1069.23 166.373 1068.09 163.678 1065.81 161.329C1063.6 158.979 1060.24 157.805 1055.75 157.805C1051.33 157.805 1048.05 158.876 1045.91 161.018C1043.76 163.16 1042.69 165.682 1042.69 168.584C1042.69 170.934 1043.52 173.006 1045.18 174.803C1046.91 176.531 1049.67 177.533 1053.47 177.809L1060.11 178.431C1065.5 178.915 1070.2 180.089 1074.2 181.955C1078.28 183.751 1081.46 186.239 1083.74 189.418C1086.02 192.596 1087.16 196.431 1087.16 200.923C1087.16 205.691 1085.88 209.906 1083.32 213.568C1080.84 217.161 1077.31 219.96 1072.75 221.964C1068.19 223.967 1062.8 224.969 1056.58 224.969ZM1096.18 223V206.416H1112.35V223H1096.18Z" fill="white"/>
</g>
<defs>
<filter id="filter0_d" x="0.399077" y="0.86953" width="1123.13" height="234.212" filterUnits="userSpaceOnUse" color-interpolation-filters="sRGB">
<feFlood flood-opacity="0" result="BackgroundImageFix"/>
<feColorMatrix in="SourceAlpha" type="matrix" values="0 0 0 0 0 0 0 0 0 0 0 0 0 0 0 0 0 0 127 0" result="hardAlpha"/>
<feOffset dy="5.05606"/>
<feGaussianBlur stdDeviation="2.52803"/>
<feComposite in2="hardAlpha" operator="out"/>
<feColorMatrix type="matrix" values="0 0 0 0 0 0 0 0 0 0 0 0 0 0 0 0 0 0 0.35 0"/>
<feBlend mode="normal" in2="BackgroundImageFix" result="effect1_dropShadow"/>
<feBlend mode="normal" in="SourceGraphic" in2="effect1_dropShadow" result="shape"/>
</filter>
</defs>
</svg>
